<svg xmlns="http://www.w3.org/2000/svg" width="14" height="14" fill="white" viewBox="0 0 24 24">
  <path d="M12 .5C5.73.5.5 5.73.5 12c0 5.09 3.29 9.4 7.85 10.94.57.1.78-.25.78-.56 0-.27-.01-1.15-.01-2.08-3.2.7-3.88-1.36-3.88-1.36-.52-1.3-1.26-1.64-1.26-1.64-1.03-.7.08-.69.08-.69 1.14.08 1.75 1.2 1.75 1.2 1.01 1.75 2.65 1.25 3.3.95.1-.74.4-1.25.72-1.54-2.55-.3-5.24-1.28-5.24-5.68 0-1.25.45-2.28 1.2-3.08-.12-.3-.52-1.52.1-3.18 0 0 .97-.31 3.18 1.18a11 11 0 0 1 5.78 0C17.1 3.91 18.07 4.22 18.07 4.22c.63 1.66.23 2.88.1 3.18.75.8 1.2 1.83 1.2 3.08 0 4.41-2.7 5.37-5.27 5.66.42.36.78 1.1.78 2.23 0 1.61-.01 2.91-.01 3.3 0 .31.2.67.79.56A11.51 11.51 0 0 0 23.5 12c0-6.27-5.23-11.5-11.5-11.5z"/>
</svg>
