<svg xmlns="http://www.w3.org/2000/svg" width="12" height="12" fill="white" viewBox="0 0 24 24">
  <path d="M23 3a10.9 10.9 0 0 1-3.14 1.53A4.48 4.48 0 0 0 22.4.36a9.1 9.1 0 0 1-2.88 1.1A4.52 4.52 0 0 0 16.12 0c-2.5 0-4.52 2.05-4.52 4.57 0 .36.03.72.11 1.05C7.72 5.46 4.1 3.61 1.67.64a4.52 4.52 0 0 0-.61 2.3 4.57 4.57 0 0 0 2.01 3.8 4.49 4.49 0 0 1-2.05-.57v.06c0 2.23 1.57 4.09 3.66 4.52a4.52 4.52 0 0 1-2.04.08 4.57 4.57 0 0 0 4.27 3.2A9.06 9.06 0 0 1 0 19.54a12.73 12.73 0 0 0 6.91 2.03c8.3 0 12.84-6.97 12.84-13.01 0-.2-.01-.4-.02-.6A9.22 9.22 0 0 0 23 3z"/>
</svg>
